<?xml version="1.0" standalone="no"?>
<!DOCTYPE svg PUBLIC "-//W3C//DTD SVG 20010904//EN"
 "http://www.w3.org/TR/2001/REC-SVG-20010904/DTD/svg10.dtd">
<svg version="1.0" xmlns="http://www.w3.org/2000/svg"
 width="453.000000pt" height="453.000000pt" viewBox="0 0 453.000000 453.000000"
 preserveAspectRatio="xMidYMid meet">
<metadata>
Created by potrace 1.14, written by Peter Selinger 2001-2017
</metadata>
<g transform="translate(0.000000,453.000000) scale(0.100000,-0.100000)"
fill="#000000" stroke="none">
<path d="M1840 4319 c-304 -15 -552 -56 -771 -125 -108 -34 -292 -107 -315
-126 -14 -10 -29 -451 -29 -823 1 -372 24 -514 140 -875 184 -570 429 -980
813 -1360 151 -150 319 -290 479 -400 l91 -63 89 64 c598 432 1038 1042 1246
1729 64 209 118 508 137 750 12 161 12 508 0 725 -15 257 -12 247 -68 274
-364 178 -1080 269 -1812 230z m377 -483 l2 -308 -33 5 c-19 3 -77 -3 -131
-13 -53 -11 -110 -17 -126 -13 l-29 6 0 303 0 303 53 -5 c38 -4 65 0 102 15
33 14 68 20 105 18 l55 -2 2 -309z m179 293 c44 -17 69 -20 110 -15 l54 6 0
-305 0 -305 -57 0 c-32 0 -89 6 -128 13 -38 8 -85 12 -102 10 l-33 -4 0 304
c0 167 3 307 7 310 13 14 94 6 149 -14z m-551 -648 l-25 -26 0 312 0 312 23
16 22 15 3 -302 2 -302 -25 -25z m767 612 c17 -15 18 -38 18 -320 0 -166 -3
-303 -7 -303 -4 0 -17 10 -30 22 l-23 21 0 299 c0 311 1 318 42 281z m-1353
-132 c6 -10 13 -37 17 -60 5 -31 11 -41 25 -41 24 0 24 -6 -1 -37 -11 -14 -20
-34 -20 -44 0 -29 36 -59 70 -59 17 0 39 -9 51 -21 24 -24 54 -18 87 18 26 28
23 57 -9 85 -10 9 -19 19 -19 22 0 12 34 5 52 -11 17 -15 19 -15 36 0 10 10
24 17 32 17 20 0 6 -50 -42 -146 -40 -79 -44 -85 -68 -79 -109 28 -337 34
-432 11 l-58 -13 -28 51 c-44 79 -72 144 -72 166 0 24 4 25 40 4 26 -16 29
-16 51 0 43 30 53 13 19 -31 -26 -33 -25 -61 2 -90 26 -28 47 -29 79 -5 13 11
39 22 58 26 67 13 88 52 51 99 -24 30 -25 37 -6 37 8 0 16 16 20 42 7 40 29
78 47 78 5 0 13 -8 18 -19z m1938 11 c15 -10 33 -56 33 -86 0 -16 7 -26 22
-29 l22 -6 -22 -24 c-42 -44 -22 -93 42 -104 22 -3 48 -15 58 -25 23 -23 54
-17 86 18 28 32 28 49 -3 80 -14 14 -25 27 -25 29 0 12 39 3 50 -10 12 -14 15
-14 36 0 27 18 54 20 54 4 0 -6 -23 -58 -50 -116 -40 -82 -54 -103 -68 -99
-97 28 -333 35 -440 12 l-63 -13 -32 61 c-81 157 -88 195 -28 160 24 -14 33
-16 43 -6 12 12 48 17 48 6 0 -3 -9 -17 -20 -31 -27 -35 -25 -67 6 -92 33 -26
49 -26 74 -1 11 11 29 20 39 20 32 0 69 18 80 39 12 21 -3 81 -20 81 -5 0 -9
5 -9 10 0 6 8 10 18 8 14 -2 18 6 22 47 7 69 19 85 47 67z m-1813 -366 c48 -8
90 -17 93 -19 2 -3 -2 -27 -10 -53 -11 -38 -19 -48 -33 -47 -11 2 -46 7 -79
12 -51 8 -165 7 -290 -2 -25 -2 -32 4 -47 33 -25 52 -23 58 35 69 114 23 218
25 331 7z m1994 -7 c50 -12 53 -15 49 -38 -13 -61 -26 -82 -49 -76 -93 23
-249 27 -345 10 -41 -7 -42 -7 -62 33 -12 23 -21 46 -21 51 0 10 71 27 145 35
64 7 226 -2 283 -15z m-1168 -89 c12 -8 12 -10 -2 -15 -10 -4 -20 -15 -23 -26
-6 -18 -18 -19 -177 -19 l-171 0 26 20 c16 13 41 20 69 21 23 0 75 6 113 13
85 17 145 19 165 6z m195 -5 c50 -8 108 -15 131 -15 28 0 47 -6 58 -19 17 -19
17 -20 -6 -23 -13 -2 -89 -2 -170 0 -137 3 -148 4 -148 22 0 10 -5 20 -12 22
-20 7 2 28 30 28 15 0 68 -7 117 -15z m-982 -29 c29 -13 19 -24 -28 -32 -56
-8 -331 -1 -341 9 -11 10 0 18 38 28 39 10 305 5 331 -5z m827 10 c0 -2 3 -11
6 -20 5 -13 -1 -16 -25 -16 -33 0 -39 8 -19 28 11 11 38 17 38 8z m1123 -10
c29 -13 19 -24 -28 -32 -56 -8 -331 -1 -341 9 -11 10 0 18 38 28 39 10 305 5
331 -5z m-1873 -421 c135 -135 250 -245 256 -245 7 0 26 17 44 38 18 20 60 66
94 102 33 36 115 123 181 195 66 71 125 135 132 142 9 10 50 -30 189 -180 253
-274 273 -295 282 -301 5 -3 121 107 258 244 136 138 251 250 254 250 3 0 108
-113 233 -250 216 -238 226 -252 221 -283 -43 -244 -85 -407 -154 -597 -214
-594 -605 -1112 -1142 -1510 -51 -38 -98 -70 -104 -70 -6 0 -54 30 -105 66
-497 352 -880 826 -1122 1389 -82 190 -145 376 -197 583 l-41 162 218 236
c120 130 224 244 232 255 7 10 16 19 20 19 3 0 116 -110 251 -245z"/>
<path d="M2031 4003 c1 -24 3 -29 6 -15 5 27 20 29 28 2 11 -33 25 -23 24 18
-1 35 -2 35 -8 8 l-6 -29 -14 26 c-20 38 -31 34 -30 -10z"/>
<path d="M1992 4000 c0 -19 2 -27 5 -17 2 9 2 25 0 35 -3 9 -5 1 -5 -18z"/>
<path d="M2100 3851 c0 -23 2 -41 4 -41 8 0 12 71 4 76 -4 3 -8 -13 -8 -35z"/>
<path d="M2150 3881 c0 -5 5 -13 10 -16 6 -3 10 -2 10 4 0 5 -4 13 -10 16 -5
3 -10 2 -10 -4z"/>
<path d="M2017 3873 c-13 -12 -7 -61 8 -67 12 -4 13 -2 3 13 -14 22 -4 51 17
51 22 0 30 -29 15 -54 -12 -19 -12 -20 3 -7 20 16 22 42 5 59 -13 13 -41 16
-51 5z"/>
<path d="M1932 3833 l1 -38 4 33 c5 42 38 42 38 0 -1 -15 3 -24 7 -22 14 9 8
52 -8 58 -35 13 -44 7 -42 -31z"/>
<path d="M2162 3830 c0 -14 2 -19 5 -12 2 6 2 18 0 25 -3 6 -5 1 -5 -13z"/>
<path d="M2104 3702 c-29 -20 -16 -72 19 -72 6 0 1 7 -11 16 -18 12 -20 19
-12 35 6 10 17 19 25 19 16 0 29 -35 19 -51 -4 -8 -3 -9 4 -5 15 9 15 39 0 54
-14 14 -28 15 -44 4z"/>
<path d="M2001 3663 c1 -37 1 -38 8 -8 l8 30 13 -27 c18 -39 30 -35 29 10 -1
32 -2 34 -8 12 l-7 -25 -15 23 c-20 32 -29 27 -28 -15z"/>
<path d="M1972 3660 c0 -19 2 -27 5 -17 2 9 2 25 0 35 -3 9 -5 1 -5 -18z"/>
<path d="M2280 4025 c-24 -29 14 -85 41 -58 9 9 7 11 -8 7 -25 -7 -37 9 -28
37 5 14 13 19 26 16 10 -3 17 -1 13 4 -8 14 -30 11 -44 -6z"/>
<path d="M2364 4016 c-15 -40 21 -81 50 -57 21 17 20 45 -1 62 -15 13 -15 12
-3 -7 15 -25 7 -54 -15 -54 -21 0 -31 29 -16 51 7 12 8 19 1 19 -6 0 -13 -6
-16 -14z"/>
<path d="M2450 3996 c0 -20 2 -36 4 -36 8 0 12 61 4 66 -4 3 -8 -11 -8 -30z"/>
<path d="M2497 3998 c-3 -18 -1 -37 4 -42 5 -6 9 7 9 32 0 50 -6 54 -13 10z"/>
<path d="M2341 3828 c1 -24 3 -35 6 -25 2 9 11 17 19 17 8 0 14 5 14 10 0 6
-7 10 -15 10 -23 0 -18 18 8 23 19 4 18 4 -5 6 -27 1 -28 -1 -27 -41z"/>
<path d="M2423 3825 c0 -22 2 -30 4 -17 2 12 2 30 0 40 -3 9 -5 -1 -4 -23z"/>
<path d="M2317 3703 c-10 -9 -9 -73 1 -73 4 0 7 15 7 33 0 22 5 32 15 32 11 0
15 -10 14 -32 -1 -18 2 -30 7 -27 15 9 10 61 -7 68 -20 8 -29 8 -37 -1z"/>
<path d="M2448 3689 c20 -21 15 -59 -7 -59 -23 0 -32 19 -19 43 5 10 5 17 -1
17 -13 0 -23 -34 -15 -54 7 -19 47 -21 62 -3 15 17 4 54 -16 62 -14 5 -15 4
-4 -6z"/>
<path d="M1218 3709 c-25 -44 -23 -49 22 -49 22 0 40 3 40 6 0 6 -40 74 -43
74 -1 0 -10 -14 -19 -31z"/>
<path d="M1090 3665 c-11 -13 -8 -15 20 -15 28 0 31 2 20 15 -7 8 -16 15 -20
15 -4 0 -13 -7 -20 -15z"/>
<path d="M1357 3674 c-13 -13 -7 -24 14 -24 11 0 19 5 17 12 -5 14 -22 21 -31
12z"/>
<path d="M3166 3706 c-22 -46 -22 -46 24 -46 22 0 40 2 40 4 0 6 -41 76 -45
76 -1 0 -10 -15 -19 -34z"/>
<path d="M3037 3673 c-15 -14 -6 -23 24 -23 27 0 30 2 19 15 -13 16 -32 19
-43 8z"/>
<path d="M3307 3673 c-14 -13 -6 -23 19 -23 22 0 25 2 14 15 -14 16 -23 19
-33 8z"/>
<path d="M1233 3574 c-9 -23 13 -40 32 -24 12 10 13 16 4 26 -15 18 -28 18
-36 -2z"/>
<path d="M1137 3573 c-10 -15 10 -35 29 -31 26 5 24 32 -3 36 -11 2 -23 -1
-26 -5z"/>
<path d="M1310 3560 c0 -16 5 -21 23 -18 12 2 22 10 22 18 0 8 -10 16 -22 18
-18 3 -23 -2 -23 -18z"/>
<path d="M1411 3561 c-17 -11 -7 -41 13 -41 22 0 30 20 15 36 -9 8 -19 10 -28
5z"/>
<path d="M1045 3550 c-4 -7 -3 -16 3 -22 14 -14 45 -2 40 15 -6 16 -34 21 -43
7z"/>
<path d="M3183 3574 c-8 -21 13 -42 28 -27 13 13 5 43 -11 43 -6 0 -13 -7 -17
-16z"/>
<path d="M3087 3573 c-10 -15 10 -35 29 -31 26 5 24 32 -3 36 -11 2 -23 -1
-26 -5z"/>
<path d="M3260 3560 c0 -16 5 -21 23 -18 12 2 22 10 22 18 0 8 -10 16 -22 18
-18 3 -23 -2 -23 -18z"/>
<path d="M2996 3552 c-9 -14 12 -35 28 -29 23 9 20 37 -3 37 -11 0 -22 -4 -25
-8z"/>
<path d="M3350 3540 c0 -16 5 -21 23 -18 12 2 22 10 22 18 0 8 -10 16 -22 18
-18 3 -23 -2 -23 -18z"/>
<path d="M1243 2606 c-15 -12 -38 -28 -50 -35 -26 -13 -30 -31 -8 -31 21 0 30
-27 15 -45 -10 -13 -10 -19 5 -35 16 -18 16 -21 0 -64 -24 -62 -16 -134 19
-180 14 -19 53 -56 86 -81 68 -52 79 -84 28 -76 -21 3 -4 -31 22 -44 31 -16
37 -29 20 -40 -5 -3 -10 -13 -10 -21 0 -17 80 -20 111 -4 14 8 31 7 64 -5 59
-19 67 -19 98 6 l26 20 -35 31 c-19 17 -31 35 -27 39 4 4 41 13 81 19 99 16
190 0 326 -55 61 -25 111 -43 113 -42 4 4 -43 75 -82 123 l-30 37 25 16 c13 9
36 26 50 39 l25 23 -35 -6 c-19 -3 -71 -8 -116 -11 -92 -8 -143 9 -163 53 -11
23 -8 28 27 62 39 36 80 100 65 102 -5 1 -20 0 -35 -1 -34 -2 -35 11 -7 57 12
19 18 37 15 40 -4 4 -59 -15 -123 -41 -65 -26 -141 -50 -169 -53 -47 -5 -55
-3 -78 20 -21 21 -26 36 -26 75 0 35 -6 57 -22 77 -45 58 -153 74 -205 31z
m67 -36 c0 -5 -4 -10 -10 -10 -5 0 -10 5 -10 10 0 6 5 10 10 10 6 0 10 -4 10
-10z"/>
<path d="M2350 2568 c-50 -39 -52 -43 -31 -52 22 -10 28 -40 10 -51 -7 -5 -4
-13 7 -26 16 -18 16 -21 -1 -65 -22 -58 -16 -127 15 -174 12 -19 51 -56 86
-83 66 -49 78 -71 44 -82 -28 -9 -25 -23 10 -43 17 -9 28 -23 25 -29 -3 -7 -8
-20 -11 -28 -9 -23 43 -31 92 -13 35 12 46 12 80 1 48 -17 95 -10 111 17 11
17 10 21 -9 31 -13 7 -29 18 -37 26 -29 29 4 38 142 38 126 0 136 -1 217 -34
47 -18 102 -42 123 -52 20 -11 37 -16 37 -13 0 13 -60 100 -85 124 -33 31 -32
42 12 71 40 26 59 57 28 45 -10 -4 -60 -10 -111 -13 -106 -7 -141 3 -167 46
-16 27 -16 28 24 67 36 34 69 82 69 99 0 3 -16 5 -35 5 -41 0 -43 10 -14 57
12 19 19 37 15 40 -3 3 -56 -15 -118 -41 -195 -82 -269 -74 -272 32 -3 87 -64
142 -157 142 -39 0 -54 -6 -99 -42z m98 -19 c-2 -6 -8 -10 -13 -10 -5 0 -11 4
-13 10 -2 6 4 11 13 11 9 0 15 -5 13 -11z"/>
<path d="M1860 1802 c-9 -4 -34 -20 -55 -37 -22 -16 -42 -31 -45 -33 -3 -2 6
-11 19 -21 20 -16 22 -20 10 -38 -10 -18 -10 -24 4 -38 20 -20 20 -15 2 -58
-21 -50 -19 -125 4 -167 10 -19 38 -50 62 -68 62 -47 99 -82 99 -94 0 -5 -9
-12 -20 -15 -29 -8 -24 -29 10 -43 33 -14 36 -20 19 -37 -36 -36 34 -57 91
-28 25 13 32 13 64 0 46 -19 91 -19 110 1 22 21 21 23 -16 55 -40 34 -30 45
51 55 112 14 198 0 329 -54 67 -27 122 -46 122 -42 0 10 -85 126 -99 134 -20
13 -11 35 22 52 30 16 46 31 47 45 0 3 -43 -1 -95 -9 -87 -13 -99 -13 -139 2
-25 9 -52 29 -61 43 -17 25 -16 26 23 67 22 22 47 56 57 75 l17 34 -28 -6
c-50 -9 -56 1 -28 49 15 25 24 47 21 50 -3 3 -34 -6 -69 -21 -182 -77 -260
-92 -306 -59 -18 12 -22 25 -22 65 0 65 -21 104 -70 129 -38 20 -100 25 -130
12z m40 -52 c0 -5 -4 -10 -10 -10 -5 0 -10 5 -10 10 0 6 5 10 10 10 6 0 10 -4
10 -10z"/>
<path d="M3605 1936 c-42 -18 -85 -72 -85 -105 0 -21 12 -38 50 -70 28 -23 50
-48 50 -55 0 -7 -25 -55 -57 -106 -42 -71 -57 -106 -61 -143 -5 -48 -3 -51 33
-82 48 -40 45 -54 -35 -160 -185 -244 -462 -506 -699 -662 -76 -51 -236 -133
-257 -133 -5 0 -19 15 -32 34 -38 56 -58 60 -290 52 -240 -9 -256 -13 -276
-79 -5 -16 -9 -15 -60 7 -80 36 -232 134 -343 222 -194 154 -623 607 -623 657
0 8 18 30 40 47 61 49 53 102 -35 226 -25 34 -45 72 -45 83 0 13 23 43 56 73
49 47 55 56 50 82 -11 54 -67 96 -129 96 -23 0 -52 -12 -87 -36 -28 -19 -71
-44 -95 -54 -52 -22 -65 -43 -65 -106 0 -38 13 -73 65 -179 36 -73 65 -141 65
-151 0 -11 -11 -30 -25 -42 -29 -28 -50 -90 -41 -124 14 -54 203 -277 410
-483 213 -212 386 -356 553 -459 101 -63 243 -126 285 -126 34 0 62 26 79 74
17 48 44 55 234 62 173 6 191 1 212 -61 19 -57 45 -75 108 -75 45 0 72 9 173
60 345 173 683 466 956 830 92 122 136 199 136 237 0 14 -15 40 -35 60 -19 20
-35 44 -35 53 0 10 29 76 65 148 105 212 105 245 -5 316 -83 54 -144 86 -162
86 -7 -1 -27 -7 -43 -14z m76 -36 c21 -12 26 -40 7 -40 -6 0 -19 7 -29 16 -25
22 -45 12 -52 -25 -5 -25 -12 -31 -32 -31 -34 0 -33 33 1 65 29 26 72 32 105
15z m-2774 -20 c18 -10 39 -32 47 -49 14 -26 14 -30 -1 -36 -18 -6 -52 28 -53
52 0 23 -19 23 -48 -2 -25 -21 -31 -23 -36 -9 -7 18 8 50 26 57 23 9 32 7 65
-13z m2905 -53 c42 -33 43 -35 42 -87 -2 -44 -13 -75 -70 -186 -37 -74 -70
-134 -72 -134 -2 0 -15 9 -29 20 -28 22 -67 26 -109 10 -17 -7 -31 -7 -37 -1
-12 12 25 92 97 205 31 49 66 115 77 148 26 69 39 72 101 25z m-3008 -70 c16
-42 51 -114 79 -160 72 -117 89 -153 85 -177 -3 -22 -3 -22 -41 4 -46 32 -95
34 -131 5 l-26 -20 -61 128 c-78 166 -88 202 -66 237 10 14 25 26 35 26 10 0
33 11 52 25 19 14 37 22 40 18 4 -5 19 -43 34 -86z m2860 64 c16 -17 16 -22 2
-55 -17 -40 -34 -40 -60 -1 -15 22 -14 26 7 49 27 31 29 31 51 7z m-2766 -83
c-40 -34 -46 -35 -58 -2 -15 38 -12 51 12 74 l23 21 27 -33 28 -33 -32 -27z
m9 -330 c27 -25 29 -41 7 -58 -20 -17 -41 3 -50 48 -8 39 8 43 43 10z m2713 4
c0 -27 -21 -44 -37 -31 -16 14 -17 36 0 42 24 10 37 7 37 -11z m-2782 -29 c41
-114 394 -501 652 -714 205 -171 384 -278 489 -295 34 -5 41 -10 35 -23 -4 -9
-17 -43 -28 -76 -28 -78 -55 -95 -123 -77 -126 33 -336 172 -558 367 -244 215
-569 571 -596 653 -17 51 2 101 56 151 24 22 49 41 54 41 5 0 13 -12 19 -27z
m2882 -18 c69 -56 76 -82 41 -147 -134 -255 -502 -632 -831 -852 -143 -96
-308 -176 -363 -178 -61 -1 -84 15 -97 65 -5 23 -15 57 -21 74 -14 44 -6 53
46 53 75 0 315 134 490 273 97 78 273 244 370 350 105 114 258 315 282 370 9
20 21 36 26 34 5 -1 30 -20 57 -42z m-1306 -881 c54 -8 60 -26 15 -44 -32 -14
-33 -15 -13 -93 l6 -28 -93 7 c-56 4 -131 2 -187 -6 -51 -6 -96 -9 -99 -6 -4
3 0 24 7 46 12 38 12 43 -9 71 -13 17 -21 33 -18 35 15 16 309 29 391 18z
m-400 -60 c25 -9 19 -24 -9 -24 -16 0 -25 6 -25 15 0 16 9 19 34 9z m481 -3
c3 -5 1 -12 -4 -15 -13 -8 -42 4 -35 15 7 12 31 12 39 0z"/>
<path d="M762 1304 c-28 -20 -29 -72 -2 -107 17 -22 23 -24 44 -14 19 9 22 15
15 30 -9 16 -11 16 -26 1 -15 -15 -18 -15 -29 0 -17 24 -6 55 27 71 36 19 44
19 64 -1 10 -10 13 -24 9 -37 -6 -19 -5 -20 9 -9 15 13 15 16 0 38 -29 45 -72
56 -111 28z"/>
<path d="M881 1187 c-14 -16 -37 -35 -53 -41 -28 -12 -28 -13 -10 -30 17 -15
20 -15 25 -1 4 8 13 15 22 15 18 0 18 -2 3 -35 -9 -19 -9 -28 0 -37 9 -9 14
-4 23 20 7 20 18 32 32 34 31 4 33 46 5 79 l-23 26 -24 -30z m47 -29 c-2 -13
-11 -24 -20 -26 -21 -4 -24 18 -6 36 19 19 30 14 26 -10z"/>
<path d="M938 1061 c-27 -9 -48 -22 -48 -29 0 -10 4 -10 20 0 16 10 22 10 36
-3 13 -14 14 -18 1 -31 -12 -12 -13 -17 -1 -33 8 -10 14 -14 14 -7 0 6 14 33
30 59 17 26 30 51 30 55 0 12 -29 8 -82 -11z m42 -11 c0 -5 -7 -10 -16 -10 -8
0 -12 5 -9 10 3 6 10 10 16 10 5 0 9 -4 9 -10z"/>
<path d="M1031 978 c-18 -21 -40 -38 -47 -38 -18 0 -18 -14 1 -30 12 -10 15
-10 15 2 0 8 14 27 31 43 l30 30 -7 -69 c-7 -64 -6 -68 11 -59 14 8 18 24 19
77 1 37 -3 71 -9 75 -6 4 -24 -8 -44 -31z"/>
<path d="M1112 919 c-26 -32 -15 -40 13 -9 10 11 23 17 29 13 6 -4 5 1 -3 10
-7 9 -14 17 -15 16 0 0 -11 -13 -24 -30z"/>
<path d="M1139 859 l-46 -50 34 -29 c38 -33 68 -38 101 -14 33 23 29 67 -10
108 l-33 34 -46 -49z m79 -1 c30 -30 -6 -88 -53 -88 -40 0 -42 27 -4 66 37 38
40 39 57 22z"/>
<path d="M1280 787 c0 -8 -18 -31 -39 -50 l-39 -35 34 -33 c26 -26 37 -30 46
-21 9 9 8 12 -4 12 -27 0 -40 24 -23 46 14 18 16 18 29 1 11 -14 15 -15 25 -3
9 11 7 15 -11 19 -22 6 -22 7 -6 23 14 14 20 15 32 5 9 -8 13 -17 10 -22 -3
-5 0 -9 6 -9 21 0 5 32 -27 58 -25 19 -33 21 -33 9z"/>
<path d="M1359 678 c-1 -7 -1 -30 0 -50 2 -29 -1 -38 -13 -38 -9 0 -20 10 -25
22 -5 15 -10 18 -15 9 -11 -17 22 -51 50 -51 31 0 44 26 33 64 -9 32 1 53 20
42 6 -4 11 -15 11 -24 0 -12 3 -13 12 -4 8 8 8 15 -2 27 -15 18 -69 20 -71 3z"/>
<path d="M1432 594 c-40 -28 -22 -114 27 -127 11 -3 25 1 31 8 9 11 7 12 -9 8
-45 -12 -66 41 -35 85 23 33 76 27 84 -8 4 -19 8 -22 15 -11 6 10 0 21 -19 38
-32 27 -62 29 -94 7z"/>
<path d="M1547 500 c-33 -58 -34 -74 -5 -94 35 -25 56 -19 86 24 15 21 33 39
41 40 11 0 11 3 1 15 -13 16 -35 21 -26 6 8 -12 -51 -91 -69 -91 -8 0 -19 8
-24 18 -10 20 15 75 46 99 13 10 12 13 -4 21 -16 9 -23 4 -46 -38z"/>
<path d="M1700 444 c0 -22 -41 -94 -54 -94 -6 0 -5 -5 2 -12 13 -13 12 -15 35
35 9 21 21 36 26 33 5 -3 12 -31 16 -61 3 -30 10 -55 15 -55 5 0 21 23 36 50
15 28 32 50 38 50 6 0 4 5 -4 10 -16 11 -37 14 -27 4 8 -8 -13 -64 -24 -64 -8
0 -26 76 -21 92 1 4 -7 12 -18 18 -16 9 -20 8 -20 -6z"/>
<path d="M1830 371 c0 -5 9 -7 20 -4 14 4 20 0 20 -11 0 -25 -39 -96 -53 -96
-6 -1 -1 -7 13 -15 30 -17 44 -19 35 -4 -9 14 36 99 52 99 7 0 13 -8 13 -17 0
-15 2 -16 10 -3 7 12 0 20 -33 37 -44 23 -77 29 -77 14z"/>
<path d="M3616 1297 c-21 -36 -22 -42 -8 -46 18 -4 58 -27 84 -49 24 -20 6
-42 -36 -42 -23 0 -34 6 -41 23 -17 37 -50 33 -79 -10 -24 -34 -25 -38 -9 -43
31 -9 93 -54 93 -69 0 -8 8 -4 19 10 19 24 19 24 -2 29 -36 9 -32 30 6 30 35
0 49 13 83 75 6 11 17 30 24 42 12 19 12 25 1 35 -11 11 -13 10 -9 -2 7 -20
-9 -50 -26 -50 -23 0 -40 28 -27 44 9 11 8 15 -5 20 -12 4 -15 2 -11 -9 8 -20
-9 -28 -32 -15 -24 12 -18 38 12 49 17 6 18 9 4 14 -11 4 -23 -6 -41 -36z
m-21 -127 c4 -6 4 -18 1 -26 -5 -12 -9 -12 -26 -2 -11 7 -20 18 -20 25 0 16
36 17 45 3z"/>
<path d="M3480 1093 c-23 -8 -50 -45 -50 -69 0 -37 37 -74 75 -74 38 0 75 37
75 75 0 45 -58 84 -100 68z m64 -50 c31 -27 32 -35 6 -58 -19 -17 -22 -18 -55
-2 -42 20 -58 63 -30 83 20 15 43 8 79 -23z"/>
<path d="M3375 974 c-28 -14 -54 -42 -55 -57 0 -5 4 -6 10 -2 5 3 30 -14 55
-38 l46 -44 24 29 c36 42 33 77 -5 85 -16 3 -30 11 -30 19 0 21 -15 24 -45 8z
m28 -29 c4 -8 2 -17 -3 -20 -13 -8 -40 6 -40 21 0 19 36 18 43 -1z m51 -38 c8
-12 7 -20 -1 -28 -18 -18 -58 18 -41 38 13 16 28 13 42 -10z"/>
<path d="M3260 851 c0 -6 11 -34 25 -61 14 -27 25 -57 25 -67 0 -15 1 -15 14
2 12 17 12 21 -2 31 -9 6 -13 18 -9 28 7 19 43 22 50 4 3 -10 9 -8 23 4 21 20
23 18 -41 42 -76 27 -85 29 -85 17z m50 -47 c0 -8 -4 -12 -10 -9 -5 3 -10 10
-10 16 0 5 5 9 10 9 6 0 10 -7 10 -16z"/>
<path d="M3148 754 c-15 -15 -14 -19 14 -42 17 -15 38 -38 47 -53 l17 -27 37
34 c30 28 36 38 28 52 -9 15 -10 15 -11 -4 0 -12 -7 -27 -15 -34 -13 -11 -21
-8 -51 21 -20 19 -39 42 -43 52 -6 16 -8 16 -23 1z"/>
<path d="M3030 651 c0 -4 9 -36 20 -71 11 -34 17 -66 14 -71 -8 -13 10 -11 23
2 9 9 8 15 -3 27 -8 8 -13 19 -11 26 6 18 40 20 52 2 11 -14 14 -14 30 4 11
12 13 20 6 20 -7 0 -37 16 -67 35 -58 37 -64 40 -64 26z m48 -59 c6 -18 -15
-14 -22 4 -4 10 -1 14 6 12 6 -2 14 -10 16 -16z"/>
<path d="M2937 580 c-26 -21 -43 -41 -38 -44 5 -3 11 1 15 9 3 8 11 15 18 15
18 -1 80 -88 72 -101 -3 -6 5 -3 20 6 22 15 24 19 11 29 -22 16 -65 78 -65 93
0 7 9 13 21 13 11 0 17 5 14 10 -9 15 -16 12 -68 -30z"/>
<path d="M2831 504 c-39 -33 -41 -74 -6 -109 29 -30 50 -31 93 -5 32 20 41 43
22 55 -5 3 -10 -3 -10 -13 0 -31 -27 -47 -58 -36 -62 22 -65 121 -3 112 21 -3
28 -1 24 9 -8 20 -28 16 -62 -13z"/>
<path d="M2749 449 c-10 -6 -11 -11 -3 -16 19 -13 45 -73 42 -96 -2 -16 -10
-22 -28 -22 -20 0 -30 10 -51 51 -22 44 -28 49 -46 41 -19 -8 -20 -10 -4 -26
9 -10 24 -32 33 -50 20 -36 38 -46 73 -37 34 9 40 42 17 109 -14 44 -21 53
-33 46z"/>
<path d="M2588 291 c-3 -71 -1 -78 14 -70 10 6 14 16 11 30 -6 23 12 40 34 32
7 -3 13 -11 13 -19 0 -18 11 -18 36 1 15 11 16 14 4 15 -9 0 -33 20 -53 45
-21 25 -42 45 -47 45 -5 0 -10 -36 -12 -79z m34 14 c0 -5 -5 -11 -11 -13 -6
-2 -11 4 -11 13 0 9 5 15 11 13 6 -2 11 -8 11 -13z"/>
</g>
</svg>
